<svg id="Layer_1" data-name="Layer 1" xmlns="http://www.w3.org/2000/svg" viewBox="0 0 500 500"><defs><style>.cls-1{fill:#1a1a1a;}.cls-2{fill:#fff;}</style></defs><title>8_Ball</title><circle class="cls-1" cx="250" cy="250" r="250"/><ellipse class="cls-2" cx="309.01" cy="195.64" rx="127.5" ry="137.08" transform="translate(-56.23 176.65) rotate(-29.36)"/><path d="M340.48,177.93c6.2-16.68,5-36.49-4.77-53.95-17-30.22-53.58-41.9-81.69-26.08S216.91,151,233.91,181.26c9.82,17.45,26.16,28.72,43.63,32.08a64.5,64.5,0,0,0,4.77,54c17,30.23,53.58,41.9,81.69,26.09s37.12-53.14,20.11-83.36A64.47,64.47,0,0,0,340.48,177.93Zm-92-4.84c-12.15-21.6-5.72-48.27,14.37-59.57s46.22-3,58.37,18.64,5.72,48.26-14.37,59.57S260.59,194.68,248.44,173.09ZM355.21,277.76c-20.08,11.3-46.22,2.95-58.37-18.64s-5.71-48.27,14.37-59.57,46.22-3,58.37,18.64S375.3,266.46,355.21,277.76Z"/><path class="cls-2" d="M132.3,94C97.56,126.69,79.47,168.6,81,216.41c1.14,11.27-12,17.64-21.14,18.61L48,235.9c-11.89,1.47-23.32-8.1-21.81-20.44,8.49-59.35,39.51-109.06,90-141.59,6.18-2.87,17.25-9.05,23.37-2.46l2.22,3.94C144,82.28,137,89.85,132.3,94Z"/></svg>